<svg xmlns="http://www.w3.org/2000/svg" viewBox="0 0 512.17778 934.94849">
  <g>
    <g>
      <path fill="#F0852C" d="M246.40868,513.72251c3.03046,1.5424,9.86923,4.72957,11.04532,8.18023,1.64984,4.82915-5.78,9.60346-8.875,11.70548-10.8645,7.41754-29.25407,20.12466-41.55066,28.62706a269.28247,269.28247,0,0,1-19.46158-31.23268c10.47434-7.55971,20.68115-14.91919,33.56558-18.48569a40.59558,40.59558,0,0,1,17.19044-1.38579A27.392,27.392,0,0,1,246.40868,513.72251Z"/>
      <path fill="#F0852C" d="M310.74894,565.59515c5.35358,8.11487-2.29907,11.89051-9.83936,12.85765,0,0-45.98762,9.67926-64.44163,18.56489a297.46527,297.46527,0,0,1-26.95938-31.40932c7.96286-2.93272,16.31256-6.04458,17.35022-6.35351,18.54442-5.62759,39.169-10.93832,58.69629-8.3663C295.115,552.15674,305.30994,557.3438,310.74894,565.59515Z"/>
      <path fill="#F0852C" d="M338.02289,609.34023c4.4001,2.66786,7.59181,6.75077,10.2346,11.09075,2.22707,3.61926,6.07959,9.10756,4.3238,13.57988-2.12358,5.39532-10.05452,5.17538-14.72946,5.7282-4.28346.50035-8.59975.68469-12.901.81766-11.03978.35983-22.08758.27165-33.1256.10277-.88867-.0096-1.76073-.02828-2.6494-.03787a349.13027,349.13027,0,0,1-49.06339-39.97347c8.39325-.55006,16.81768-.82633,25.21741-.97067,19.38681-.32458,39.58808-.24343,58.55109,4.35025A50.05193,50.05193,0,0,1,338.02289,609.34023Z"/>
      <path fill="#F0852C" d="M490.37724,19.66283C318.32477,86.38705,42.666,237.58752,344.82324,449.93605c0,0-8.33174,37.95375-59.36013,7.68435S181.5014,379.80873,155.6118,434.90588c0,0-1.75672,44.08634,27.54538,99.2623A272.55374,272.55374,0,0,0,202.553,565.34c.53489.74168,1.06977,1.48336,1.61755,2.2289a296.99,296.99,0,0,0,27.4257,32.24228c.44856.46576.901.91863,1.34957,1.38432a348.98943,348.98943,0,0,0,46.56561,39.22786q9.86347,6.98443,20.80246,13.76846s48.61824,33.74213,20.43494,61.00572c-10.3892-6.90163-25.9637-17.119-45.06775-29.21984-49.071-31.10289-71.30074-42.85184-85.678-52.25879-56.65143-37.08423-85.0815-96.89769-93.30389-121.36908C59.78393,402.48251,57.72073,306.9722,122.82643,207.79989c44.38023-67.60221,110.5654-117.09907,182.9075-151.56525C367.19217,26.95389,423.02121,11.69835,484.85178.20178,496.9671-2.0509,501.86647,15.20715,490.37724,19.66283Z"/>
    </g>
    <g>
      <path fill="#F0852C" d="M331.59132,421.226c-3.03046-1.54241-9.86923-4.72958-11.04532-8.18024-1.64984-4.82914,5.78-9.60345,8.875-11.70548,10.8645-7.41754,29.25407-20.12465,41.55066-28.62706a269.28339,269.28339,0,0,1,19.46158,31.23269c-10.47434,7.5597-20.68115,14.91918-33.56558,18.48568a40.59575,40.59575,0,0,1-17.19044,1.3858A27.39227,27.39227,0,0,1,331.59132,421.226Z"/>
      <path fill="#F0852C" d="M267.25106,369.35335c-5.35358-8.11487,2.29907-11.89051,9.83936-12.85766,0,0,45.98762-9.67926,64.44163-18.56489a297.46627,297.46627,0,0,1,26.95938,31.40932c-7.96286,2.93273-16.31256,6.04459-17.35022,6.35352-18.54442,5.62759-39.169,10.93832-58.69629,8.36629C282.885,382.79176,272.69006,377.6047,267.25106,369.35335Z"/>
      <path fill="#F0852C" d="M239.97711,325.60826c-4.4001-2.66786-7.59181-6.75077-10.2346-11.09074-2.22707-3.61926-6.07959-9.10756-4.3238-13.57988,2.12358-5.39533,10.05452-5.17539,14.72946-5.72821,4.28346-.50035,8.59975-.68468,12.901-.81766,11.03978-.35983,22.08758-.27165,33.1256-.10277.88867.0096,1.76073.02828,2.6494.03788a349.131,349.131,0,0,1,49.06339,39.97346c-8.39325.55006-16.81768.82634-25.21741.97068-19.38681.32457-39.58808.24343-58.55109-4.35026A50.05193,50.05193,0,0,1,239.97711,325.60826Z"/>
      <path fill="#F0852C" d="M87.62276,915.28567c172.05247-66.72423,447.7112-217.9247,145.554-430.27322,0,0,8.33174-37.95375,59.36013-7.68436S396.4986,555.13977,422.3882,500.04261c0,0,1.75672-44.08633-27.54538-99.26229A272.55383,272.55383,0,0,0,375.447,369.60854c-.53489-.74167-1.06977-1.48335-1.61755-2.22889a296.98807,296.98807,0,0,0-27.4257-32.24228c-.44856-.46577-.901-.91864-1.34957-1.38432a348.98868,348.98868,0,0,0-46.56561-39.22786q-9.86347-6.98444-20.80246-13.76846S229.06784,247.0146,257.25114,219.751c10.3892,6.90162,25.9637,17.119,45.06775,29.21984,49.071,31.10288,71.30074,42.85183,85.678,52.25878,56.65143,37.08423,85.0815,96.8977,93.30389,121.36908C518.21607,532.466,520.27927,627.97629,455.17357,727.1486c-44.38023,67.60221-110.5654,117.09907-182.9075,151.56525-61.45824,29.28076-117.28728,44.5363-179.11785,56.03287C81.0329,936.9994,76.13353,919.74134,87.62276,915.28567Z"/>
    </g>
  </g>
</svg>
